<svg xmlns="http://www.w3.org/2000/svg" viewBox="0 0 1207 172" width="1207" height="172">
	<style>
		tspan { white-space:pre }
		.shp0 { fill: #263238 } 
	</style>
	<path class="shp0" d="M790 12.4L1187 12.4C1188.66 12.4 1190 13.74 1190 15.4L1190 159.55C1190 161.21 1188.66 162.55 1187 162.55L790 162.55C788.34 162.55 787 161.21 787 159.55L787 15.4C787 13.74 788.34 12.4 790 12.4Z" />
	<path fill="#263238" d="M81.89 43.12L76.87 52.65Q75.97 54.22 74.92 54.97Q73.94 55.65 72.44 55.65Q70.86 55.65 68.99 54.52Q67.19 53.32 64.64 51.89Q62.09 50.47 58.64 49.34Q55.27 48.14 50.62 48.14Q46.42 48.14 43.27 49.19Q40.12 50.17 37.94 51.97Q35.84 53.77 34.79 56.32Q33.74 58.79 33.74 61.79Q33.74 65.62 35.84 68.17Q38.01 70.72 41.54 72.52Q45.06 74.32 49.56 75.74Q54.06 77.17 58.79 78.82Q63.51 80.39 68.01 82.57Q72.51 84.67 76.04 87.97Q79.56 91.2 81.66 95.92Q83.83 100.65 83.83 107.4Q83.83 114.75 81.28 121.2Q78.81 127.57 73.93 132.37Q69.13 137.1 62.16 139.87Q55.18 142.57 46.18 142.57Q41.01 142.57 35.98 141.59Q30.96 140.54 26.31 138.67Q21.73 136.79 17.68 134.16Q13.63 131.54 10.48 128.31L16.41 118.64Q17.16 117.59 18.36 116.91Q19.56 116.16 20.91 116.16Q22.78 116.17 24.96 117.74Q27.13 119.24 30.13 121.12Q33.13 122.99 37.11 124.57Q41.16 126.07 46.78 126.07Q55.41 126.07 60.13 122.02Q64.86 117.89 64.86 110.24Q64.86 105.97 62.68 103.27Q60.59 100.57 57.06 98.77Q53.54 96.89 49.04 95.62Q44.54 94.34 39.89 92.84Q35.24 91.34 30.74 89.24Q26.24 87.14 22.71 83.77Q19.19 80.39 17.01 75.36Q14.91 70.26 14.91 62.84Q14.91 56.91 17.24 51.29Q19.64 45.66 24.14 41.32Q28.64 36.97 35.24 34.34Q41.84 31.72 50.39 31.72Q59.99 31.72 68.09 34.72Q76.19 37.72 81.89 43.12ZM121.56 87.45L136.64 87.45Q142.19 87.45 146.31 86.1Q150.44 84.68 153.14 82.13Q155.91 79.5 157.26 75.83Q158.61 72.08 158.61 67.51Q158.61 63.16 157.26 59.63Q155.91 56.1 153.22 53.63Q150.52 51.15 146.39 49.88Q142.27 48.53 136.64 48.53L121.57 48.53L121.56 87.45ZM101.39 32.92L136.64 32.93Q147.52 32.93 155.47 35.48Q163.42 38.03 168.59 42.61Q173.77 47.18 176.24 53.56Q178.79 59.93 178.79 67.51Q178.79 75.38 176.16 81.98Q173.54 88.51 168.29 93.23Q163.04 97.96 155.09 100.58Q147.21 103.2 136.63 103.2L121.56 103.2L121.56 141.38L101.38 141.37L101.39 32.92ZM262.64 48.99L214.49 48.99L214.49 79.06L252.44 79.07L252.44 94.59L214.49 94.59L214.48 125.26L262.63 125.27L262.63 141.39L194.23 141.38L194.24 32.93L262.64 32.94L262.64 48.99ZM354.14 32.95L371.92 32.95L371.91 141.4L361.56 141.4Q359.16 141.4 357.51 140.65Q355.93 139.83 354.43 137.95L297.81 65.65Q298.26 70.6 298.26 74.8L298.26 141.4L280.48 141.39L280.49 32.94L291.07 32.94Q292.34 32.94 293.24 33.1Q294.22 33.17 294.89 33.55Q295.64 33.85 296.32 34.52Q296.99 35.12 297.82 36.17L354.66 108.78Q354.43 106.15 354.28 103.6Q354.13 101.05 354.14 98.88L354.14 32.95ZM492.36 87.19Q492.36 99.12 488.38 109.09Q484.41 119.07 477.21 126.27Q470.01 133.46 459.88 137.44Q449.76 141.41 437.38 141.41L396.06 141.41L396.07 32.96L437.39 32.96Q449.77 32.96 459.89 37.01Q470.02 40.99 477.22 48.19Q484.42 55.32 488.39 65.29Q492.36 75.27 492.36 87.19ZM471.66 87.19Q471.66 78.26 469.26 71.21Q466.94 64.09 462.44 59.21Q458.02 54.26 451.64 51.64Q445.34 49.01 437.39 49.01L416.32 49.01L416.31 125.36L437.38 125.36Q445.33 125.36 451.63 122.74Q458.01 120.11 462.43 115.24Q466.93 110.29 469.26 103.24Q471.66 96.11 471.66 87.19ZM530.39 32.97L530.38 141.42L510.13 141.42L510.14 32.97L530.39 32.97ZM628.27 32.98L646.04 32.98L646.03 141.43L635.68 141.43Q633.28 141.43 631.63 140.68Q630.06 139.86 628.56 137.98L571.94 65.68Q572.39 70.63 572.39 74.83L572.38 141.43L554.61 141.42L554.62 32.97L565.19 32.98Q566.47 32.98 567.37 33.13Q568.34 33.2 569.02 33.58Q569.77 33.88 570.44 34.55Q571.12 35.15 571.94 36.2L628.78 108.81Q628.56 106.18 628.41 103.63Q628.26 101.08 628.26 98.91L628.27 32.98ZM723.59 87.07L759.59 87.07L759.58 130.95Q751.33 137.02 741.96 139.87Q732.66 142.64 722.01 142.64Q708.73 142.64 697.93 138.51Q687.21 134.39 679.56 127.04Q671.98 119.69 667.86 109.49Q663.74 99.29 663.74 87.21Q663.74 74.99 667.71 64.79Q671.69 54.59 678.97 47.24Q686.32 39.89 696.74 35.84Q707.17 31.79 720.14 31.79Q726.74 31.79 732.44 32.84Q738.22 33.89 743.09 35.77Q748.04 37.57 752.09 40.2Q756.14 42.82 759.52 45.97L753.74 55.12Q752.39 57.3 750.21 57.82Q748.04 58.27 745.49 56.7Q743.02 55.27 740.54 53.84Q738.07 52.42 734.99 51.37Q731.99 50.32 728.17 49.64Q724.42 48.97 719.47 48.97Q711.44 48.97 704.92 51.67Q698.47 54.36 693.89 59.39Q689.31 64.41 686.84 71.46Q684.36 78.51 684.36 87.21Q684.36 96.51 686.98 103.86Q689.68 111.14 694.48 116.24Q699.36 121.26 706.18 123.97Q713.01 126.59 721.41 126.59Q727.41 126.59 732.13 125.32Q736.86 124.04 741.36 121.87L741.36 102.22L727.71 102.22Q725.76 102.22 724.63 101.17Q723.59 100.04 723.59 98.47L723.59 87.07Z" />
	<path fill="#000000" d="" />
	<path fill="#ffffff" d="M896.54 33.01L896.54 49.58L863.84 49.58L863.83 141.46L843.66 141.45L843.67 49.58L810.97 49.57L810.97 33L896.54 33.01ZM930.96 84.61L943.56 84.61Q949.26 84.61 953.46 83.19Q957.74 81.77 960.44 79.29Q963.21 76.74 964.56 73.29Q965.91 69.84 965.91 65.72Q965.91 57.47 960.44 53.04Q955.04 48.62 943.87 48.61L930.97 48.61L930.96 84.61ZM968.31 101.42L995.46 141.47L977.23 141.47Q972.06 141.47 969.73 137.42L946.93 102.69Q945.66 100.74 944.09 99.91Q942.59 99.09 939.59 99.09L930.96 99.09L930.96 141.46L910.78 141.46L910.79 33.01L943.87 33.01Q954.89 33.02 962.77 35.34Q970.72 37.59 975.74 41.72Q980.84 45.84 983.24 51.62Q985.64 57.32 985.64 64.22Q985.64 69.69 983.99 74.57Q982.41 79.44 979.34 83.42Q976.34 87.39 971.84 90.39Q967.41 93.39 961.71 95.12Q963.66 96.24 965.31 97.82Q966.96 99.32 968.31 101.42ZM1075.64 49.08L1027.49 49.07L1027.49 79.15L1065.44 79.15L1065.44 94.68L1027.49 94.67L1027.48 125.35L1075.63 125.35L1075.63 141.48L1007.23 141.47L1007.24 33.02L1075.64 33.03L1075.64 49.08ZM1161.89 49.09L1113.74 49.08L1113.74 79.16L1151.69 79.16L1151.69 94.69L1113.74 94.68L1113.73 125.36L1161.88 125.36L1161.88 141.49L1093.48 141.48L1093.49 33.03L1161.89 33.04L1161.89 49.09Z" />
</svg>