<svg xmlns="http://www.w3.org/2000/svg" viewBox="0 0 1180 149" width="1180" height="149">
	<style>
		tspan { white-space:pre }
		.shp0 { fill: #263238 } 
	</style>
	<path class="shp0" d="M780 -0.6L1177 -0.6C1178.66 -0.6 1180 0.74 1180 2.4L1180 146.55C1180 148.21 1178.66 149.55 1177 149.55L780 149.55C778.34 149.55 777 148.21 777 146.55L777 2.4C777 0.74 778.34 -0.6 780 -0.6Z" />
	<path fill="#263238" d="M74.29 30.35L67.99 42.12Q66.86 43.92 65.59 44.82Q64.39 45.72 62.44 45.72Q60.71 45.72 58.69 44.67Q56.74 43.54 54.19 42.19Q51.72 40.84 48.49 39.79Q45.27 38.67 41.14 38.67Q34.02 38.67 30.49 41.74Q27.04 44.74 27.04 49.92Q27.04 53.22 29.14 55.39Q31.24 57.57 34.61 59.14Q38.06 60.72 42.41 62.07Q46.84 63.34 51.41 64.99Q55.99 66.57 60.34 68.75Q64.76 70.92 68.14 74.3Q71.59 77.67 73.69 82.55Q75.79 87.35 75.78 94.17Q75.78 101.75 73.16 108.35Q70.53 114.95 65.51 119.9Q60.56 124.77 53.21 127.62Q45.93 130.39 36.63 130.39Q31.53 130.39 26.21 129.34Q20.96 128.29 16.01 126.42Q11.06 124.46 6.71 121.84Q2.36 119.21 -0.87 115.99L6.63 104.14Q7.53 102.86 8.96 102.04Q10.46 101.14 12.18 101.14Q14.43 101.14 16.68 102.57Q19.01 103.99 21.86 105.72Q24.78 107.44 28.53 108.87Q32.28 110.29 37.38 110.29Q44.28 110.29 48.11 107.29Q51.93 104.22 51.93 97.62Q51.93 93.79 49.83 91.39Q47.73 88.99 44.29 87.42Q40.91 85.84 36.56 84.64Q32.21 83.44 27.64 82.02Q23.06 80.52 18.71 78.42Q14.36 76.24 10.91 72.79Q7.54 69.26 5.44 64.09Q3.34 58.84 3.34 51.19Q3.34 45.04 5.82 39.19Q8.29 33.34 13.09 28.77Q17.89 24.19 24.87 21.49Q31.84 18.72 40.84 18.72Q45.87 18.72 50.59 19.54Q55.39 20.29 59.67 21.87Q63.94 23.37 67.62 25.55Q71.37 27.65 74.29 30.35ZM116.06 73.55L129.26 73.55Q139.16 73.55 143.51 68.83Q147.86 64.11 147.86 55.63Q147.86 51.88 146.74 48.8Q145.61 45.73 143.29 43.55Q141.04 41.3 137.52 40.1Q134.07 38.9 129.27 38.9L116.07 38.9L116.06 73.55ZM90.72 19.92L129.27 19.93Q140.82 19.93 149.07 22.71Q157.39 25.41 162.72 30.21Q168.12 35.01 170.67 41.53Q173.21 48.06 173.21 55.63Q173.21 63.81 170.59 70.63Q167.96 77.46 162.56 82.33Q157.16 87.21 148.83 89.98Q140.58 92.68 129.26 92.68L116.06 92.68L116.06 129.2L90.71 129.2L90.72 19.92ZM256.47 39.44L211.62 39.44L211.61 64.94L245.96 64.94L245.96 83.69L211.61 83.69L211.61 109.71L256.46 109.72L256.46 129.22L186.11 129.21L186.12 19.93L256.47 19.94L256.47 39.44ZM345.12 19.95L367.47 19.95L367.46 129.23L354.26 129.23Q351.33 129.23 349.31 128.33Q347.36 127.35 345.41 125.03L293.89 59.85Q294.19 62.77 294.26 65.55Q294.41 68.25 294.41 70.65L294.41 129.22L272.06 129.22L272.07 19.94L285.42 19.95Q287.07 19.95 288.19 20.1Q289.32 20.25 290.22 20.7Q291.12 21.07 291.94 21.82Q292.77 22.57 293.82 23.85L345.78 89.48Q345.41 86.33 345.26 83.4Q345.11 80.4 345.11 77.78L345.12 19.95ZM487.76 74.57Q487.76 86.42 483.63 96.47Q479.58 106.44 472.16 113.79Q464.73 121.07 454.23 125.19Q443.81 129.24 431.06 129.24L388.61 129.23L388.62 19.96L431.07 19.96Q443.82 19.96 454.24 24.09Q464.74 28.22 472.17 35.49Q479.59 42.77 483.64 52.82Q487.76 62.79 487.76 74.57ZM461.81 74.56Q461.81 66.46 459.71 59.94Q457.61 53.41 453.64 48.91Q449.74 44.34 444.04 41.94Q438.34 39.46 431.07 39.46L414.12 39.46L414.11 109.73L431.06 109.74Q438.33 109.74 444.03 107.34Q449.73 104.86 453.63 100.36Q457.61 95.79 459.71 89.26Q461.81 82.74 461.81 74.56ZM528.27 19.97L528.26 129.25L502.76 129.24L502.77 19.97L528.27 19.97ZM622.47 19.98L644.82 19.99L644.81 129.26L631.61 129.26Q628.68 129.26 626.66 128.36Q624.71 127.38 622.76 125.06L571.24 59.88Q571.54 62.8 571.61 65.58Q571.76 68.28 571.76 70.68L571.76 129.25L549.41 129.25L549.42 19.97L562.77 19.98Q564.42 19.98 565.54 20.13Q566.67 20.28 567.57 20.73Q568.47 21.1 569.29 21.85Q570.12 22.6 571.17 23.88L623.13 89.51Q622.76 86.36 622.61 83.43Q622.46 80.43 622.46 77.81L622.47 19.98ZM718.46 86.59L718.46 72.64L757.31 72.65L757.31 118.77Q748.91 124.92 739.38 127.7Q729.93 130.47 719.58 130.47Q706.08 130.47 694.98 126.27Q683.96 121.99 676.08 114.56Q668.21 107.06 663.93 96.86Q659.66 86.59 659.66 74.59Q659.66 62.36 663.71 52.16Q667.77 41.89 675.27 34.46Q682.84 27.04 693.49 22.92Q704.22 18.79 717.42 18.79Q724.24 18.79 730.24 19.92Q736.24 21.05 741.27 23Q746.37 24.95 750.57 27.65Q754.77 30.35 758.07 33.5L750.71 44.67Q748.99 47.3 746.21 47.9Q743.51 48.5 740.36 46.55Q737.36 44.75 734.66 43.47Q732.04 42.12 729.27 41.29Q726.49 40.47 723.42 40.09Q720.34 39.72 716.52 39.72Q709.39 39.72 703.69 42.27Q697.99 44.74 693.94 49.32Q689.96 53.89 687.79 60.34Q685.61 66.71 685.61 74.59Q685.61 83.29 688.01 90.04Q690.41 96.79 694.76 101.44Q699.18 106.09 705.26 108.57Q711.41 110.97 718.83 110.97Q723.41 110.97 727.08 110.07Q730.83 109.17 734.36 107.67L734.36 91.09L723.56 91.09Q721.16 91.09 719.81 89.82Q718.46 88.54 718.46 86.59Z" />
	<path fill="#000000" d="" />
	<path fill="#ffffff" d="M886.54 20.01L886.54 36.58L853.84 36.58L853.83 128.46L833.66 128.45L833.67 36.58L800.97 36.57L800.97 20L886.54 20.01ZM920.96 71.61L933.56 71.61Q939.26 71.61 943.46 70.19Q947.74 68.77 950.44 66.29Q953.21 63.74 954.56 60.29Q955.91 56.84 955.91 52.72Q955.91 44.47 950.44 40.04Q945.04 35.62 933.87 35.61L920.97 35.61L920.96 71.61ZM958.31 88.42L985.46 128.47L967.23 128.47Q962.06 128.47 959.73 124.42L936.93 89.69Q935.66 87.74 934.09 86.91Q932.59 86.09 929.59 86.09L920.96 86.09L920.96 128.46L900.78 128.46L900.79 20.01L933.87 20.01Q944.89 20.02 952.77 22.34Q960.72 24.59 965.74 28.72Q970.84 32.84 973.24 38.62Q975.64 44.32 975.64 51.22Q975.64 56.69 973.99 61.57Q972.41 66.44 969.34 70.42Q966.34 74.39 961.84 77.39Q957.41 80.39 951.71 82.12Q953.66 83.24 955.31 84.82Q956.96 86.32 958.31 88.42ZM1065.64 36.08L1017.49 36.07L1017.49 66.15L1055.44 66.15L1055.44 81.68L1017.49 81.67L1017.48 112.35L1065.63 112.35L1065.63 128.48L997.23 128.47L997.24 20.02L1065.64 20.03L1065.64 36.08ZM1151.89 36.09L1103.74 36.08L1103.74 66.16L1141.69 66.16L1141.69 81.69L1103.74 81.68L1103.73 112.36L1151.88 112.36L1151.88 128.49L1083.48 128.48L1083.49 20.03L1151.89 20.04L1151.89 36.09Z" />
</svg>