<svg xmlns="http://www.w3.org/2000/svg" viewBox="0 0 1180 149" width="1180" height="149">
	<style>
		tspan { white-space:pre }
		.shp0 { fill: #263238 } 
	</style>
	<path class="shp0" d="M780 -0.6L1177 -0.6C1178.66 -0.6 1180 0.74 1180 2.4L1180 146.55C1180 148.21 1178.66 149.55 1177 149.55L780 149.55C778.34 149.55 777 148.21 777 146.55L777 2.4C777 0.74 778.34 -0.6 780 -0.6Z" />
	<path fill="#263238" d="M69.27 30.05L65.74 36.95Q65.07 38.07 64.24 38.67Q63.49 39.2 62.37 39.2Q61.09 39.2 59.37 37.92Q57.64 36.65 55.02 35.14Q52.47 33.57 48.79 32.29Q45.19 31.02 40.02 31.02Q35.14 31.02 31.39 32.37Q27.72 33.64 25.17 35.89Q22.69 38.14 21.42 41.22Q20.14 44.22 20.14 47.74Q20.14 52.24 22.31 55.24Q24.56 58.17 28.16 60.27Q31.84 62.37 36.41 63.94Q41.06 65.44 45.86 67.09Q50.74 68.74 55.31 70.84Q59.96 72.87 63.56 76.02Q67.24 79.17 69.41 83.75Q71.66 88.32 71.66 95Q71.66 102.05 69.26 108.27Q66.86 114.42 62.21 119Q57.63 123.57 50.88 126.19Q44.21 128.82 35.66 128.82Q25.16 128.82 16.61 125.07Q8.06 121.24 1.98 114.79L6.18 107.89Q6.78 107.06 7.61 106.54Q8.51 105.94 9.56 105.94Q10.53 105.94 11.73 106.76Q13.01 107.52 14.58 108.72Q16.16 109.92 18.18 111.34Q20.21 112.77 22.76 113.97Q25.38 115.17 28.68 115.99Q31.98 116.74 36.11 116.74Q41.28 116.74 45.33 115.32Q49.38 113.89 52.16 111.34Q55.01 108.72 56.51 105.12Q58.01 101.52 58.01 97.1Q58.01 92.22 55.76 89.14Q53.59 85.99 49.99 83.89Q46.39 81.79 41.74 80.37Q37.09 78.87 32.29 77.37Q27.49 75.79 22.84 73.77Q18.19 71.74 14.59 68.52Q10.99 65.29 8.74 60.49Q6.56 55.61 6.56 48.49Q6.56 42.79 8.74 37.46Q10.99 32.14 15.19 28.02Q19.47 23.89 25.62 21.42Q31.84 18.94 39.87 18.94Q48.87 18.94 56.22 21.79Q63.64 24.65 69.27 30.05ZM106.61 75.88L123.86 75.88Q130.09 75.88 134.81 74.23Q139.61 72.58 142.84 69.65Q146.14 66.65 147.79 62.53Q149.44 58.41 149.44 53.46Q149.44 43.18 143.07 37.4Q136.77 31.63 123.87 31.63L106.62 31.63L106.61 75.88ZM92.14 20.15L123.87 20.15Q134.07 20.15 141.57 22.55Q149.14 24.88 154.09 29.23Q159.04 33.58 161.44 39.73Q163.91 45.88 163.91 53.46Q163.91 60.96 161.29 67.18Q158.66 73.41 153.56 77.91Q148.54 82.41 141.04 84.95Q133.61 87.43 123.86 87.43L106.61 87.43L106.61 127.63L92.13 127.62L92.14 20.15ZM196.76 115.79L248.51 115.79L248.43 127.64L182.21 127.63L182.22 20.16L248.44 20.17L248.44 32.02L196.77 32.01L196.76 67.71L238.61 67.72L238.61 79.12L196.76 79.11L196.76 115.79ZM343.17 20.18L355.92 20.18L355.91 127.65L348.63 127.65Q346.91 127.65 345.71 127.05Q344.58 126.45 343.46 125.03L281.29 44.02Q281.44 45.89 281.51 47.69Q281.59 49.49 281.59 51.07L281.58 127.64L268.83 127.64L268.84 20.17L276.34 20.17Q277.32 20.17 277.99 20.32Q278.67 20.39 279.19 20.69Q279.72 20.92 280.24 21.44Q280.77 21.89 281.37 22.64L343.53 103.58Q343.38 101.63 343.23 99.83Q343.16 97.95 343.16 96.3L343.17 20.18ZM476.51 73.97Q476.51 86.04 472.68 95.94Q468.86 105.84 461.88 112.89Q454.91 119.94 445.08 123.84Q435.33 127.66 423.48 127.66L383.36 127.66L383.37 20.18L423.49 20.19Q435.34 20.19 445.09 24.09Q454.92 27.91 461.89 35.04Q468.87 42.09 472.69 51.99Q476.51 61.89 476.51 73.97ZM461.59 73.96Q461.59 64.06 458.89 56.26Q456.19 48.46 451.24 43.06Q446.29 37.66 439.24 34.81Q432.19 31.96 423.49 31.96L397.92 31.96L397.91 115.88L423.48 115.89Q432.18 115.89 439.23 113.04Q446.28 110.19 451.23 104.86Q456.18 99.46 458.88 91.66Q461.59 83.86 461.59 73.96ZM511.99 20.2L511.98 127.67L497.43 127.67L497.44 20.19L511.99 20.2ZM613.77 20.21L626.52 20.21L626.51 127.68L619.23 127.68Q617.51 127.68 616.31 127.08Q615.18 126.48 614.06 125.06L551.89 44.05Q552.04 45.92 552.11 47.72Q552.19 49.52 552.19 51.1L552.18 127.67L539.43 127.67L539.44 20.2L546.94 20.2Q547.92 20.2 548.59 20.35Q549.27 20.42 549.79 20.72Q550.32 20.95 550.84 21.47Q551.37 21.92 551.97 22.67L614.13 103.61Q613.98 101.66 613.83 99.86Q613.76 97.98 613.76 96.33L613.77 20.21ZM708.26 76.02L741.26 76.02L741.26 117.27Q733.16 123.12 723.93 126.04Q714.78 128.89 703.83 128.89Q690.86 128.89 680.43 124.91Q670.01 120.86 662.58 113.66Q655.23 106.39 651.26 96.26Q647.29 86.14 647.29 73.99Q647.29 61.69 651.11 51.56Q655.02 41.44 662.14 34.24Q669.27 26.96 679.47 22.99Q689.67 19.02 702.27 19.02Q708.64 19.02 714.12 19.99Q719.59 20.89 724.24 22.69Q728.89 24.42 732.87 26.97Q736.84 29.45 740.29 32.6L736.17 39.2Q735.19 40.7 733.62 41.14Q732.12 41.52 730.24 40.39Q728.44 39.34 726.12 37.84Q723.79 36.34 720.42 34.99Q717.12 33.57 712.54 32.59Q708.04 31.62 701.82 31.62Q692.74 31.62 685.39 34.61Q678.04 37.54 672.86 43.09Q667.69 48.56 664.91 56.44Q662.14 64.24 662.14 73.99Q662.14 84.11 664.98 92.14Q667.91 100.09 673.23 105.71Q678.63 111.26 686.28 114.19Q693.93 117.12 703.46 117.12Q710.96 117.12 716.73 115.47Q722.58 113.74 728.13 110.74L728.14 87.12L711.41 87.12Q709.99 87.12 709.09 86.29Q708.26 85.47 708.26 84.27L708.26 76.02Z" />
	<path fill="#000000" d="" />
	<path fill="#ffffff" d="M886.54 20.01L886.54 36.58L853.84 36.58L853.83 128.46L833.66 128.45L833.67 36.58L800.97 36.57L800.97 20L886.54 20.01ZM920.96 71.61L933.56 71.61Q939.26 71.61 943.46 70.19Q947.74 68.77 950.44 66.29Q953.21 63.74 954.56 60.29Q955.91 56.84 955.91 52.72Q955.91 44.47 950.44 40.04Q945.04 35.62 933.87 35.61L920.97 35.61L920.96 71.61ZM958.31 88.42L985.46 128.47L967.23 128.47Q962.06 128.47 959.73 124.42L936.93 89.69Q935.66 87.74 934.09 86.91Q932.59 86.09 929.59 86.09L920.96 86.09L920.96 128.46L900.78 128.46L900.79 20.01L933.87 20.01Q944.89 20.02 952.77 22.34Q960.72 24.59 965.74 28.72Q970.84 32.84 973.24 38.62Q975.64 44.32 975.64 51.22Q975.64 56.69 973.99 61.57Q972.41 66.44 969.34 70.42Q966.34 74.39 961.84 77.39Q957.41 80.39 951.71 82.12Q953.66 83.24 955.31 84.82Q956.96 86.32 958.31 88.42ZM1065.64 36.08L1017.49 36.07L1017.49 66.15L1055.44 66.15L1055.44 81.68L1017.49 81.67L1017.48 112.35L1065.63 112.35L1065.63 128.48L997.23 128.47L997.24 20.02L1065.64 20.03L1065.64 36.08ZM1151.89 36.09L1103.74 36.08L1103.74 66.16L1141.69 66.16L1141.69 81.69L1103.74 81.68L1103.73 112.36L1151.88 112.36L1151.88 128.49L1083.48 128.48L1083.49 20.03L1151.89 20.04L1151.89 36.09Z" />
</svg>